<svg width="91" height="11" viewBox="0 0 91 11" fill="none" xmlns="http://www.w3.org/2000/svg">
<path d="M8.463 7.127C8.463 5.112 6.539 4.67 4.602 4.54C3.055 4.449 2.093 4.163 2.093 3.617C2.093 3.071 2.847 2.694 4.433 2.694C5.356 2.694 6.747 2.902 7.319 3.045L7.683 1.407C6.851 1.186 5.603 1.017 4.433 1.017C2.431 1.017 0.325 1.602 0.325 3.682C0.325 5.671 2.509 6.1 4.498 6.217C6.318 6.334 6.695 6.698 6.695 7.244C6.695 8.193 5.538 8.375 3.952 8.375C2.73 8.375 1.391 8.115 0.702 7.92L0.234 9.506C1.326 9.857 2.535 10.052 4.043 10.052C6.123 10.052 8.463 9.441 8.463 7.127ZM16.5459 3.474H13.9459V1.927L12.8409 2.044L12.2559 3.474H11.2159L11.0729 5.138H12.1779V7.686C12.1779 9.688 13.7379 10.052 15.1029 10.052C15.9739 10.052 16.7799 9.896 16.7799 9.896L16.5459 8.271C16.5459 8.271 15.9479 8.375 15.1939 8.375C14.0889 8.375 13.9459 8.154 13.9459 7.686V5.138H16.3899L16.5459 3.474ZM21.2985 3.422H19.5305V7.062C19.5305 8.986 20.7915 10.052 22.8715 10.052C23.5865 10.052 24.4185 9.831 25.0425 9.597L25.1205 10H26.6675V3.422H24.9125V8.011C24.4055 8.206 23.5865 8.375 23.0145 8.375C21.2855 8.375 21.2985 7.465 21.2985 7.062V3.422ZM35.3309 10H36.8909V1.056L35.1229 0.964999V3.76C34.5639 3.552 33.8489 3.37 33.1989 3.37C30.9759 3.37 29.5979 4.709 29.5979 6.711C29.5979 8.713 31.0019 10.052 33.2379 10.052C33.9659 10.052 34.6939 9.87 35.2789 9.636L35.3309 10ZM33.3549 8.375C31.4569 8.375 31.3789 7.179 31.3789 6.711C31.3789 6.243 31.4569 5.047 33.3549 5.047C33.9139 5.047 34.6289 5.216 35.1229 5.411V8.05C34.6679 8.219 34.0699 8.375 33.3549 8.375ZM41.9055 3.422H40.1375V7.062C40.1375 8.986 41.3985 10.052 43.4785 10.052C44.1935 10.052 45.0255 9.831 45.6495 9.597L45.7275 10H47.2745V3.422H45.5195V8.011C45.0125 8.206 44.1935 8.375 43.6215 8.375C41.8925 8.375 41.9055 7.465 41.9055 7.062V3.422ZM59.9985 2.226C59.2445 2.226 58.6681 2.50767 58.2695 3.071C57.8708 3.63433 57.6715 4.40567 57.6715 5.385C57.6715 6.373 57.8535 7.14 58.2175 7.686C58.5901 8.22333 59.1838 8.492 59.9985 8.492C60.3798 8.492 60.7568 8.44867 61.1295 8.362C61.5108 8.27533 61.9225 8.154 62.3645 7.998V9.649C61.9571 9.81367 61.5541 9.935 61.1555 10.013C60.7568 10.091 60.3105 10.13 59.8165 10.13C58.8631 10.13 58.0745 9.935 57.4505 9.545C56.8351 9.14633 56.3801 8.59167 56.0855 7.881C55.7908 7.16167 55.6435 6.32533 55.6435 5.372C55.6435 4.436 55.8125 3.60833 56.1505 2.889C56.4885 2.16967 56.9781 1.60633 57.6195 1.199C58.2695 0.791666 59.0625 0.588 59.9985 0.588C60.4578 0.588 60.9171 0.648666 61.3765 0.77C61.8445 0.882666 62.2908 1.03867 62.7155 1.238L62.0785 2.837C61.7318 2.67233 61.3808 2.52933 61.0255 2.408C60.6788 2.28667 60.3365 2.226 59.9985 2.226ZM77.9608 10H66.2868V0.717999H68.2498V8.362H71.1358V0.717999H73.1118V8.362H75.9978V0.717999H77.9608V10ZM87.9334 10L87.2574 7.79H83.8774L83.2014 10H81.0824L84.3584 0.679H86.7634L90.0524 10H87.9334ZM86.1134 3.981C86.0701 3.83367 86.0138 3.64733 85.9444 3.422C85.8751 3.19667 85.8058 2.967 85.7364 2.733C85.6671 2.499 85.6108 2.29533 85.5674 2.122C85.5241 2.29533 85.4634 2.512 85.3854 2.772C85.3161 3.02333 85.2468 3.266 85.1774 3.5C85.1168 3.72533 85.0691 3.88567 85.0344 3.981L84.3714 6.139H86.7894L86.1134 3.981Z" fill="#092C8F"/>
</svg>
